<svg xmlns="http://www.w3.org/2000/svg" width="2200" height="720">
<path fill="#b52000" d="M 100,188 L 367,18 L 167,244 Z" fill-rule="evenodd"/>
<path fill="#cc2300" d="M 167,244 L 527,243 L 367,18 Z" fill-rule="evenodd"/>
<path fill="#b52000" d="M 367,18 L 527,243 L 664,186 Z" fill-rule="evenodd"/>
<path fill="#991c00" d="M 100,188 L 167,244 L 85,514 Z" fill-rule="evenodd"/>
<path fill="#851600" d="M 167,244 L 350,544 L 85,514 Z" fill-rule="evenodd"/>
<path fill="#991c00" d="M 664,186 L 527,243 L 650,511 Z" fill-rule="evenodd"/>
<path fill="#851600" d="M 527,243 L 650,511 L 350,544 Z" fill-rule="evenodd"/>
<path fill="#991c00" d="M 167,244 L 527,243 L 350,544 Z" fill-rule="evenodd"/>
<path fill="#731400" d="M 85,514 L 350,544 L 381,694 Z" fill-rule="evenodd"/>
<path fill="#5e0f00" d="M 350,544 L 381,694 L 650,511 Z" fill-rule="evenodd"/>
<text xml:space="preserve" font-family="Arial" font-size="300" y="360" x="750" fill="#ddd" font-weight="bold">XXII News</text>
<text xml:space="preserve" font-family="Arial" font-size="118" y="520" x="760" fill="#eee" font-weight="bold">Personalized brief</text>
</svg>